<svg width="512" height="512" viewBox="0 0 512 512" fill="none" xmlns="http://www.w3.org/2000/svg">
<path d="M174.586 122.449C187.083 134.946 187.083 155.207 174.586 167.704L168.929 173.361C153.309 188.982 153.309 214.308 168.929 229.929L282.067 343.067C297.688 358.688 323.014 358.688 338.635 343.067L344.292 337.41C356.789 324.913 377.05 324.913 389.547 337.41L429.145 377.008C441.642 389.505 441.776 410.105 427.056 419.885C364.916 461.171 280.284 454.421 225.499 399.636L112.362 286.499C57.5758 231.713 50.8262 147.081 92.1126 84.9414C101.893 70.2212 122.492 70.3552 134.989 82.852L174.586 122.449Z" fill="white"/>
<path d="M349.714 160.857C373.58 184.722 382.253 218.027 375.734 248.754C373.442 259.556 360.289 261.94 352.481 254.132L350.185 251.836C346.146 247.798 344.724 241.926 345.391 236.254C347.599 217.47 341.499 197.896 327.087 183.484C312.675 169.072 293.101 162.972 274.317 165.18C268.645 165.847 262.773 164.425 258.735 160.386L256.439 158.09C248.631 150.282 251.015 137.129 261.817 134.837C292.544 128.318 325.849 136.991 349.714 160.857Z" fill="white"/>
<path d="M409.112 101.46C442.414 134.763 453.53 181.851 442.46 224.355C439.657 235.114 426.408 237.55 418.547 229.689L416.951 228.093C412.72 223.862 411.314 217.643 412.544 211.786C418.985 181.115 410.299 147.902 386.484 124.087C362.67 100.273 329.457 91.5876 298.786 98.0279C292.929 99.2577 286.71 97.8524 282.479 93.6208L280.885 92.0267C273.023 84.1652 275.459 70.9162 286.218 68.1138C328.723 57.0428 375.81 68.1582 409.112 101.46Z" fill="white"/>
</svg>
