<svg width="512" height="512" viewBox="0 0 512 512" fill="none" xmlns="http://www.w3.org/2000/svg">
<path d="M383 208C391.836 208 399 215.164 399 224H399.118C391.74 290.745 338.745 343.74 272 351.118V436C272 444.836 264.836 452 256 452C247.164 452 240 444.836 240 436V351.118C173.255 343.74 120.26 290.745 112.882 224H113C113 215.164 120.164 208 129 208C136.999 208 143.627 213.871 144.812 221.538C144.848 221.845 144.885 222.152 144.925 222.458C144.973 222.965 145 223.48 145 224H145.136C152.9 278.276 199.577 320 256 320C312.423 320 359.1 278.276 366.864 224H367C367 223.48 367.026 222.965 367.074 222.458C367.114 222.152 367.152 221.845 367.188 221.538C368.373 213.871 375.001 208 383 208ZM272 32C307.346 32.0001 336 60.654 336 96V224C336 259.346 307.346 288 272 288H240C204.654 288 176 259.346 176 224V96C176 60.6539 204.654 32 240 32H272Z" fill="white"/>
</svg>
