<svg width="512" height="512" viewBox="0 0 512 512" fill="none" xmlns="http://www.w3.org/2000/svg">
<mask id="path-1-outside-1_56_293" maskUnits="userSpaceOnUse" x="43.6076" y="293.934" width="424.424" height="206.395" fill="black">
<rect fill="white" x="43.6076" y="293.934" width="424.424" height="206.395"/>
<path d="M434.217 414.997C442.712 417.432 447.79 426.456 443.334 434.087C428.927 458.758 399.158 471.523 370.436 463.287L124.353 392.724C95.6307 384.488 77.1497 357.887 78.0058 329.331C78.2705 320.498 87.3589 315.537 95.8532 317.972L434.217 414.997Z"/>
</mask>
<path d="M370.436 463.287L366.026 478.667L366.026 478.667L370.436 463.287ZM124.353 392.724L119.943 408.104L119.943 408.104L124.353 392.724ZM443.334 434.087L429.517 426.019C418.711 444.524 396.367 454.078 374.846 447.907L370.436 463.287L366.026 478.667C401.949 488.968 439.144 472.991 457.15 442.155L443.334 434.087ZM370.436 463.287L374.846 447.907L128.763 377.343L124.353 392.724L119.943 408.104L366.026 478.667L370.436 463.287ZM124.353 392.724L128.763 377.343C107.242 371.173 93.3564 351.23 93.9986 329.81L78.0058 329.331L62.0129 328.852C60.943 364.544 84.019 397.803 119.943 408.104L124.353 392.724ZM95.8532 317.972L91.443 333.353L429.807 430.377L434.217 414.997L438.627 399.616L100.263 302.592L95.8532 317.972ZM78.0058 329.331L93.9986 329.81C93.9816 330.376 93.7956 331.126 93.3571 331.842C92.9439 332.517 92.4634 332.911 92.1347 333.11C91.5641 333.456 91.3387 333.323 91.443 333.353L95.8532 317.972L100.263 302.592C84.7034 298.13 62.677 306.7 62.0129 328.852L78.0058 329.331ZM443.334 434.087L457.15 442.155C468.326 423.018 454.187 404.078 438.627 399.616L434.217 414.997L429.807 430.377C429.911 430.407 429.65 430.4 429.349 429.805C429.176 429.462 428.977 428.873 428.984 428.082C428.992 427.242 429.232 426.507 429.517 426.019L443.334 434.087Z" fill="white" mask="url(#path-1-outside-1_56_293)"/>
<mask id="path-3-outside-2_56_293" maskUnits="userSpaceOnUse" x="38.8913" y="13.8239" width="434.219" height="216.339" fill="black">
<rect fill="white" x="38.8913" y="13.8239" width="434.219" height="216.339"/>
<path d="M310.592 49.6921C375.242 40.6062 435.389 81.5088 451.962 142.957C454.263 151.488 448.067 159.629 439.316 160.859L90.7421 209.848C81.9915 211.078 73.792 204.96 73.6522 196.125C72.6455 132.489 119.189 76.5923 183.838 67.5062L310.592 49.6921Z"/>
</mask>
<path d="M183.838 67.5062L181.611 51.6619L181.611 51.6619L183.838 67.5062ZM451.962 142.957L467.41 138.79L451.962 142.957ZM310.592 49.6921L312.819 65.5363C369.375 57.5879 422.017 93.3721 436.514 147.123L451.962 142.957L467.41 138.79C448.761 69.6455 381.108 23.6245 308.365 33.8478L310.592 49.6921ZM439.316 160.859L437.09 145.015L88.5153 194.004L90.7421 209.848L92.9689 225.692L441.543 176.703L439.316 160.859ZM73.6522 196.125L89.6502 195.872C88.7696 140.207 129.509 91.2991 186.065 83.3505L183.838 67.5062L181.611 51.6619C108.869 61.8854 56.5215 124.771 57.6542 196.378L73.6522 196.125ZM183.838 67.5062L186.065 83.3505L312.819 65.5363L310.592 49.6921L308.365 33.8478L181.611 51.6619L183.838 67.5062ZM90.7421 209.848L88.5153 194.004C88.4512 194.013 88.5833 193.968 88.8442 194.173C88.9901 194.287 89.1988 194.501 89.3762 194.845C89.5656 195.213 89.6458 195.591 89.6502 195.872L73.6522 196.125L57.6542 196.378C57.9673 216.173 76.0702 228.067 92.9689 225.692L90.7421 209.848ZM451.962 142.957L436.514 147.123C436.441 146.852 436.413 146.467 436.494 146.061C436.57 145.681 436.711 145.418 436.82 145.268C437.014 144.999 437.154 145.006 437.09 145.015L439.316 160.859L441.543 176.703C458.442 174.328 472.565 157.905 467.41 138.79L451.962 142.957Z" fill="white" mask="url(#path-3-outside-2_56_293)"/>
<path d="M81.3267 259.65C83.164 251.007 91.6602 245.489 100.304 247.327L444.612 320.511C453.255 322.349 458.773 330.845 456.935 339.488V339.488C455.098 348.132 446.602 353.649 437.958 351.812L93.6505 278.627C85.0071 276.79 79.4895 268.294 81.3267 259.65V259.65Z" fill="white"/>
<path d="M195.518 259.61C196.711 260.24 197.215 261.248 197.387 261.637C197.433 261.739 197.447 261.848 197.482 261.944L198.881 262.274C199.651 261.917 200.738 261.657 202.033 262.177C202.362 262.31 202.606 262.526 202.848 262.701C203.22 262.682 203.624 262.691 204.042 262.796C204.258 262.85 204.44 262.967 204.627 263.048C204.961 262.956 205.333 262.833 205.758 262.841C206.369 262.853 206.881 263.03 207.334 263.24C207.392 263.252 207.465 263.233 207.524 263.248C208.038 263.381 208.448 263.626 208.797 263.87L208.889 263.89C209.349 264.105 209.692 264.391 209.971 264.663C210.341 264.321 211.281 263.577 212.723 263.587C214.195 263.598 215.084 264.399 215.642 265.038C216.055 265.226 216.379 265.449 216.651 265.699C217.289 265.503 218.101 265.37 219.024 265.66C219.696 265.873 220.18 266.24 220.551 266.592C221.411 266.296 222.574 266.082 223.803 266.772C224.721 267.288 225.176 268.046 225.412 268.52C225.922 268.663 226.389 268.915 226.795 269.229L226.789 269.26C226.849 269.236 226.903 269.192 226.968 269.17C227.236 269.079 227.552 269.074 227.858 269.04C228.03 268.987 228.195 268.833 228.388 268.801C229.322 268.649 230.302 268.827 231.152 269.325C231.428 269.487 231.632 269.701 231.832 269.884C231.893 269.914 231.944 269.953 232.002 269.985C232.792 269.74 233.616 269.768 234.392 270.013C235.273 269.818 236.201 269.949 237.06 270.389C237.226 270.292 237.372 270.133 237.579 270.052C238.656 269.632 240.069 269.632 241.294 270.458C241.899 270.868 242.256 271.378 242.486 271.766C242.749 271.726 243.017 271.699 243.295 271.714C243.853 271.531 244.502 271.406 245.246 271.554C245.769 271.191 246.75 270.656 248.087 270.816C249.14 270.942 249.832 271.479 250.335 271.964C251.289 271.666 252.5 271.607 253.646 272.317C254.183 272.652 254.533 273.065 254.785 273.422C255.053 273.457 255.327 273.464 255.617 273.566C256.018 273.372 256.509 273.155 257.118 273.119L258.22 273.193C259.258 273.418 260.033 274.034 260.508 274.606C260.531 274.634 260.527 274.683 260.549 274.711C261.055 274.918 261.503 275.154 261.828 275.462C261.937 275.566 261.978 275.726 262.068 275.832C262.27 275.848 262.485 275.819 262.699 275.87C262.737 275.88 262.777 275.917 262.815 275.927C262.873 275.915 262.927 275.878 262.987 275.868C263.144 275.842 263.305 275.912 263.459 275.904C263.778 275.837 264.12 275.843 264.489 275.868C265.057 275.639 265.839 275.44 266.747 275.613C266.828 275.628 266.902 275.706 266.979 275.726C267.137 275.68 267.286 275.57 267.465 275.542C268.953 275.312 270.232 275.933 271.012 276.743C271.197 276.937 271.26 277.209 271.384 277.397C271.537 277.417 271.692 277.423 271.849 277.464C272.549 277.291 273.388 277.274 274.329 277.672C275.107 277.715 275.852 277.905 276.484 278.353C276.619 278.449 276.716 278.581 276.829 278.682C277.11 278.853 277.34 279.051 277.54 279.249C277.582 279.22 277.613 279.173 277.657 279.146C278.173 278.832 279.157 278.42 280.391 278.609C280.791 278.671 281.108 278.874 281.422 279.02C282.125 278.844 282.995 278.767 283.946 279.173C284.198 279.281 284.347 279.516 284.547 279.652C284.83 279.748 285.075 279.864 285.302 280.004C286.461 279.929 287.51 280.277 288.263 280.953C288.465 281.134 288.533 281.401 288.673 281.583C288.872 281.553 289.075 281.522 289.292 281.523C289.541 281.41 289.806 281.256 290.13 281.19C291.418 280.928 292.682 281.342 293.576 282.114C293.89 282.387 294.01 282.747 294.184 283.01C294.558 282.687 295.275 282.156 296.341 282.031C298.072 281.829 299.282 282.771 299.914 283.557C300.424 283.523 300.993 283.524 301.597 283.755C301.724 283.804 301.818 283.929 301.932 283.986C302.343 283.75 302.966 283.484 303.771 283.45C304.578 283.417 305.294 283.678 305.915 284.034C306.827 284.284 307.416 284.807 307.825 285.271C308.41 284.999 309.206 284.715 310.183 284.845L311.533 285.26C311.895 285.45 312.162 285.721 312.407 285.957C313.465 285.923 314.407 286.241 315.099 286.817C315.285 286.972 315.357 287.222 315.491 287.379C315.574 287.439 315.673 287.468 315.747 287.529C315.9 287.414 316.046 287.233 316.248 287.125C316.954 286.749 318.18 286.389 319.554 286.901C320.297 287.18 320.777 287.666 321.128 288.066C321.36 288.251 321.546 288.441 321.709 288.637C322.257 288.752 322.715 288.933 323.094 289.187C323.23 289.102 323.384 289.016 323.563 288.935C323.977 288.665 324.558 288.365 325.306 288.251C325.918 288.159 326.52 288.186 327.076 288.34L328.598 289.143L329.021 289.712C329.304 289.623 329.609 289.487 329.967 289.466L330.028 289.479C330.535 289.262 331.217 289.05 332.049 289.142C332.627 289.205 333.125 289.388 333.545 289.619L334.559 290.41L335.058 291.219C335.465 291.125 335.931 291.067 336.45 291.131C336.519 291.14 336.591 291.196 336.658 291.208C337.148 291.012 337.786 290.834 338.543 290.905C338.999 290.949 339.38 291.131 339.74 291.288C340.369 291.088 341.17 290.937 342.088 291.212C343.023 291.492 343.593 292.077 343.978 292.54C344.194 292.514 344.424 292.451 344.666 292.462C344.861 292.472 345.033 292.578 345.209 292.61C345.277 292.605 345.342 292.559 345.412 292.557C346.082 292.54 346.656 292.685 347.13 292.89C347.364 292.799 347.603 292.655 347.894 292.605C349.221 292.381 350.455 292.853 351.289 293.615C351.498 293.805 351.589 294.062 351.729 294.251C352.344 294.594 352.777 295.02 353.028 295.358C353.162 295.541 353.164 295.778 353.253 295.949C354.109 296.039 354.835 296.307 355.407 296.79C355.623 296.621 355.837 296.367 356.168 296.217C357.021 295.834 358.2 295.733 359.361 296.225C360.072 296.054 360.784 296.146 361.528 296.398C361.92 296.381 362.361 296.351 362.821 296.481C362.937 296.514 363.03 296.604 363.137 296.644C363.983 296.468 364.996 296.44 366.019 297.065C367.035 297.686 367.458 298.566 367.626 298.972C367.773 298.789 368.098 298.4 368.618 298.065C369.165 297.713 370.321 297.205 371.762 297.551C371.804 297.561 371.831 297.627 371.871 297.638C372.386 297.512 372.993 297.427 373.674 297.574C374.667 297.79 375.339 298.343 375.774 298.819C376.137 298.804 376.532 298.737 376.95 298.845C377.772 299.061 378.324 299.518 378.733 299.927C379.595 299.767 380.543 299.832 381.401 300.303C382.176 300.728 382.621 301.319 382.861 301.699C383.382 301.462 384.047 301.254 384.857 301.325C385.898 301.419 386.64 301.884 387.162 302.358C387.499 302.246 387.9 302.173 388.353 302.164C389.356 302.146 390.256 302.51 390.917 303.028C390.962 303.064 390.971 303.14 391.013 303.176C391.652 302.956 392.439 302.836 393.344 303.033C393.605 303.091 393.824 303.25 394.045 303.342C394.658 303.068 395.544 302.814 396.598 303.054C397.306 303.216 397.859 303.546 398.274 303.889C398.824 304.239 399.242 304.639 399.48 304.976C399.515 305.025 399.508 305.1 399.54 305.149C399.89 305.277 400.207 305.384 400.472 305.57C400.756 305.452 401.096 305.359 401.487 305.307C402.048 305.081 402.79 304.878 403.684 305.039C405.162 305.305 405.986 306.273 406.341 306.818C406.45 306.986 406.436 307.202 406.512 307.365C406.618 307.426 406.692 307.518 406.785 307.583C407.299 307.49 407.872 307.465 408.501 307.628C408.682 307.419 409.037 307.062 409.547 306.765C410.194 306.391 411.415 305.97 412.842 306.443C413.079 306.522 413.237 306.718 413.432 306.824C413.67 306.851 413.923 306.84 414.179 306.918C414.472 307.01 414.733 307.146 414.965 307.277C415.318 307.235 415.704 307.196 416.118 307.267C416.787 307.382 417.307 307.714 417.745 308.028C417.947 308.073 418.18 308.05 418.393 308.134C419.062 308.396 419.506 308.822 419.858 309.212C420.261 309.108 420.708 309.093 421.213 309.148C421.769 308.845 422.595 308.488 423.659 308.614L425.093 309.079C426.27 309.706 426.8 310.753 426.939 311.068C427.049 311.321 427.048 311.593 427.102 311.806C427.718 311.479 428.571 311.293 429.631 311.481C430.144 311.293 430.799 311.116 431.571 311.222C432.011 311.283 432.356 311.497 432.693 311.652C433.069 311.418 433.586 311.153 434.257 311.058C435.623 310.866 436.817 311.397 437.603 312.153C437.661 312.209 437.664 312.312 437.716 312.369C438.014 312.475 438.331 312.54 438.601 312.716L438.649 312.791C438.935 312.657 439.248 312.459 439.628 312.392C441.371 312.091 442.736 312.969 443.442 313.841C443.5 313.914 443.529 314.022 443.58 314.094C443.966 313.895 444.481 313.704 445.111 313.653C445.909 313.592 446.618 313.851 447.238 314.169L447.305 314.151C447.946 314.262 448.443 314.518 448.86 314.801C448.964 314.813 449.078 314.754 449.186 314.775C450.08 314.946 450.71 315.405 451.189 315.871C451.443 316.014 451.744 316.049 451.945 316.224L452.898 317.449L453.359 318.888C453.383 319.088 453.347 319.263 453.347 319.397C453.523 319.289 453.716 319.173 453.927 319.073C454.113 318.985 454.524 318.774 455.065 318.676C455.355 318.624 456.321 318.472 457.379 318.912L458.45 319.587L459.193 320.448C459.565 321.007 459.688 321.594 459.768 322.104L459.762 322.134C460.237 322.4 460.757 322.763 461.163 323.359C462.47 325.288 461.575 327.187 461.438 327.475C461.377 327.602 461.247 327.685 461.177 327.802C461.583 328.284 461.879 328.928 462.011 329.737C462.057 329.766 462.104 329.798 462.151 329.831C462.623 330.162 463.444 330.923 463.753 332.216C463.853 332.64 463.781 333.031 463.757 333.399C463.929 333.78 464.072 334.218 464.115 334.721C464.194 335.687 463.935 336.528 463.608 337.105C463.405 337.463 463.117 337.71 462.887 337.942C462.858 338.036 462.802 338.116 462.767 338.204C462.851 338.791 462.83 339.455 462.578 340.145C462.39 340.656 462.079 341.042 461.81 341.355C461.792 341.476 461.823 341.609 461.793 341.735L461.75 341.79C461.781 342.479 461.726 343.262 461.275 344.021C461.237 344.085 461.154 344.119 461.114 344.178C461.278 344.542 461.465 345.095 461.475 345.789C461.483 346.403 461.37 347.167 460.928 347.909C460.702 348.289 460.408 348.574 460.127 348.825C460.123 349.08 460.207 349.36 460.141 349.658C459.933 350.59 459.37 351.579 458.351 352.217C457.461 352.773 456.598 352.84 456.143 352.834C455.884 352.831 455.653 352.725 455.44 352.685C454.94 353.002 454.4 353.224 453.839 353.303C453.735 353.317 453.626 353.262 453.527 353.268C453.453 353.32 453.381 353.367 453.305 353.413C453.301 353.607 453.332 353.843 453.291 354.081C453.215 354.496 452.652 356.969 449.935 357.393C449.419 357.473 448.961 357.4 448.575 357.328C448.366 357.493 448.162 357.718 447.888 357.853C446.846 358.362 445.896 358.297 445.152 358.101C444.621 358.49 443.897 358.908 442.929 358.939C441.687 358.978 440.783 358.438 440.304 358.061C440.148 357.938 440.077 357.732 439.954 357.604C439.891 357.636 439.86 357.731 439.793 357.761C439.273 357.993 438.611 358.076 437.884 358.026C437.406 358.156 436.828 358.28 436.19 358.177C435.558 358.074 435.046 357.785 434.611 357.49C433.987 357.499 433.46 357.38 432.984 357.177C432.579 357.139 432.207 357 431.812 356.831C431.697 356.828 431.57 356.896 431.45 356.882C431.184 356.852 430.972 356.676 430.742 356.604C430.024 356.708 429.21 356.69 428.308 356.182C428.22 356.212 428.149 356.296 428.055 356.32C427.382 356.493 426.558 356.519 425.739 356.243C425.348 356.111 425.009 355.937 424.727 355.741C424.251 355.741 423.802 355.673 423.37 355.516C423.245 355.545 423.124 355.641 422.988 355.659C422.149 355.765 421.408 355.609 420.792 355.32C420.537 355.313 420.253 355.337 419.971 355.273C418.443 354.922 417.709 353.854 417.39 353.287C417.3 353.255 417.218 353.206 417.128 353.167C416.381 353.469 415.374 353.684 414.234 353.255L414.227 353.285C413.398 353.563 412.339 353.624 411.281 353.17C411.207 353.139 411.155 353.067 411.086 353.033C410.825 353.084 410.559 353.214 410.25 353.207C409.111 353.181 408.31 352.64 407.732 352.128C407.421 352.234 407.088 352.394 406.681 352.416C405.451 352.477 404.402 351.979 403.715 351.338C403.529 351.165 403.426 350.946 403.293 350.77C402.1 350.602 401.207 349.993 400.711 349.39C400.591 349.245 400.546 349.061 400.459 348.921C400.258 349.134 399.829 349.582 399.136 349.886C398.299 350.251 397.047 350.437 395.79 349.846C395.361 349.643 395.096 349.293 394.813 349.031C394.587 349.171 394.406 349.419 394.132 349.525C393.305 349.845 392.165 349.955 391.02 349.439C390.002 348.976 389.443 348.224 389.195 347.805L389.177 347.737C388.797 347.862 388.343 347.974 387.82 347.96C387.449 347.949 387.109 347.806 386.787 347.708C386.172 348.074 385.217 348.534 383.949 348.287C382.144 347.934 381.311 346.605 381.057 346.107C380.924 345.845 380.92 345.546 380.847 345.296C380.768 345.209 380.712 345.113 380.647 345.03C380.436 345.118 380.213 345.24 379.952 345.297C379.515 345.392 379.078 345.356 378.64 345.306C378.588 345.356 378.562 345.449 378.503 345.5C378.223 345.74 377.623 346.173 376.752 346.374C375.729 346.607 374.619 346.425 373.675 345.816C373.2 345.509 372.875 345.145 372.639 344.829C372.361 344.78 372.051 344.762 371.753 344.641C370.689 344.204 370.096 343.452 369.829 343.018C369.746 342.882 369.721 342.723 369.663 342.599C368.925 342.951 367.77 343.262 366.468 342.75C366.417 342.73 366.377 342.678 366.328 342.657C365.792 342.784 365.152 342.872 364.464 342.708C364.011 342.598 363.624 342.409 363.293 342.204C363.208 342.192 363.124 342.199 363.042 342.182C362.422 342.522 361.49 342.881 360.297 342.621C359.583 342.714 358.886 342.589 358.223 342.308C357.551 342.215 357.02 341.923 356.552 341.601C356.064 341.475 355.563 341.313 355.12 340.977L355.096 340.94C354.552 341.15 353.853 341.357 353.02 341.234C352.12 341.101 351.477 340.687 350.991 340.26C350.397 340.208 349.785 340.024 349.203 339.656C348.71 339.342 348.357 338.959 348.112 338.625C348.02 338.592 347.897 338.6 347.806 338.56C347.462 338.406 347.172 338.217 346.93 338.023C346.066 338.172 345.075 338.163 344.147 337.591C343.854 337.408 343.65 337.167 343.449 336.963C343.278 336.894 343.125 336.793 342.962 336.7C342.651 336.963 341.927 337.52 340.842 337.655C340.728 337.669 340.611 337.61 340.499 337.614C339.935 337.883 339.108 338.174 338.086 337.996C336.866 337.779 336.046 337.084 335.615 336.544C335.7 336.649 335.866 336.799 336.1 336.967C335.309 336.404 334.923 335.697 334.736 335.271C334.278 335.433 333.72 335.613 333.047 335.551C332.044 335.458 331.256 335.007 330.712 334.511C330.349 334.811 329.827 335.15 329.133 335.326C328.264 335.545 327.259 335.495 326.324 335.016C325.479 334.581 324.991 333.952 324.747 333.563C324.721 333.52 324.706 333.464 324.682 333.421C324.642 333.401 324.568 333.41 324.529 333.389C323.957 333.076 323.554 332.673 323.261 332.289C323.018 332.365 322.775 332.476 322.48 332.506C321.959 332.779 321.251 333.005 320.373 332.953L320.311 332.94C319.645 333.24 318.676 333.522 317.538 333.213C317.286 333.143 317.091 332.951 316.88 332.849C315.854 332.539 315.2 331.854 314.754 331.279C314.379 331.177 314.052 331.055 313.754 330.875C312.798 331.266 311.602 331.292 310.464 330.719L310.414 330.804C309.641 331.186 308.388 331.462 307.042 330.886C306.748 330.76 306.541 330.541 306.319 330.381C305.706 330.218 305.19 329.977 304.783 329.639C304.665 329.718 304.574 329.846 304.437 329.917C303.795 330.247 302.734 330.567 301.497 330.218C300.305 329.881 299.586 329.113 299.249 328.622C299.081 328.378 299.06 328.086 298.964 327.859C298.531 327.835 298.156 327.744 297.802 327.612C297.674 327.749 297.583 327.966 297.41 328.104C297.085 328.361 296.419 328.83 295.439 328.963C294.278 329.117 293.173 328.736 292.366 328.086C292.259 327.999 292.204 327.867 292.112 327.776C292.027 327.778 291.931 327.851 291.842 327.847C290.77 327.791 289.986 327.289 289.415 326.788C289.297 326.851 289.208 326.98 289.075 327.035C288.341 327.336 287.299 327.515 286.181 327.123C285.13 326.753 284.5 326.043 284.177 325.579C284.071 325.424 284.042 325.237 283.963 325.086C283.259 325.392 282.264 325.684 281.08 325.272C280.687 325.368 280.227 325.417 279.718 325.365C278.533 325.244 277.663 324.647 277.147 324.084C277.117 324.051 277.103 324.006 277.075 323.973C276.535 323.807 276.138 323.483 275.772 323.185C275.472 323.294 275.148 323.387 274.765 323.418C274.153 323.555 273.417 323.618 272.608 323.343L272.553 323.299C271.961 323.551 271.218 323.785 270.336 323.659C269.353 323.716 268.39 323.52 267.618 322.921C267.195 322.593 266.922 322.214 266.717 321.899C266.226 321.945 265.679 321.964 265.113 321.782C264.395 321.549 263.91 321.114 263.544 320.745C262.833 320.648 262.289 320.333 261.818 319.995C261.316 320.119 260.749 320.154 260.09 320.011C259.848 320.029 259.587 320.07 259.317 320.039C259.158 320.02 259.02 319.916 258.872 319.88C258.676 319.944 258.501 320.102 258.274 320.137C256.771 320.365 255.717 319.664 255.002 318.994C254.727 318.907 254.464 318.832 254.234 318.703C253.836 318.613 253.498 318.49 253.196 318.322C252.863 318.43 252.488 318.523 252.066 318.529C251.482 318.859 250.647 319.201 249.559 319.051C248.836 318.948 248.276 318.648 247.827 318.331C247.381 318.252 246.918 318.123 246.46 317.849C245.32 317.162 244.878 316.153 244.75 315.824C244.7 315.694 244.681 315.544 244.645 315.418C244.135 315.502 243.555 315.548 242.929 315.373C242.509 315.256 242.16 315.053 241.856 314.858C241.794 314.857 241.734 314.823 241.673 314.819C241.633 314.833 241.603 314.878 241.562 314.891C240.974 315.069 240.322 315.056 239.667 314.936C239.499 314.959 239.331 314.983 239.146 314.984C238.732 315.192 238.181 315.438 237.479 315.461C236.409 315.494 235.479 315.098 234.8 314.54C234.772 314.517 234.747 314.482 234.721 314.459C234.604 314.458 234.488 314.492 234.365 314.479C233.906 314.638 233.412 314.794 232.836 314.761C232.374 314.992 231.744 315.275 230.942 315.253C230.061 315.227 229.366 314.868 228.806 314.48C228.731 314.505 228.664 314.603 228.584 314.624C227.754 314.842 226.766 314.801 225.829 314.358C225.307 314.111 224.933 313.772 224.644 313.468C224.553 313.487 224.465 313.555 224.367 313.568C223.294 313.717 222.244 313.442 221.422 312.846C221.329 312.778 221.274 312.645 221.192 312.574C220.573 312.806 219.772 312.945 218.831 312.711C218.031 312.512 217.465 312.101 217.035 311.69C216.558 311.667 216.029 311.555 215.489 311.298C214.366 310.757 213.853 309.859 213.607 309.332C212.524 309.274 211.718 308.817 211.143 308.297C210.814 308.531 210.401 308.804 209.854 308.95C209.44 309.06 208.982 309.084 208.492 309.044C208.142 309.201 207.748 309.404 207.255 309.452C207.005 309.476 206.764 309.412 206.533 309.394C206.183 309.519 205.786 309.633 205.329 309.649C203.381 309.718 202.298 308.464 201.833 307.756C201.777 307.744 201.7 307.763 201.643 307.748C201.449 307.694 201.289 307.583 201.119 307.509C200.788 307.624 200.422 307.699 200.02 307.722C199.953 307.756 199.899 307.842 199.828 307.873C199.241 308.128 198.391 308.329 197.41 308.126C196.422 307.917 195.71 307.38 195.273 306.905C195.104 306.72 195.004 306.495 194.888 306.312L194.827 306.299C194.433 306.302 193.999 306.331 193.541 306.185C193.456 306.158 193.396 306.073 193.316 306.042C192.972 306.095 192.6 306.143 192.188 306.089C191.18 305.957 190.45 305.511 189.951 305.039C189.135 305.203 188.191 305.225 187.24 304.718C187.147 304.668 187.082 304.561 186.997 304.507C186.841 304.504 186.679 304.554 186.513 304.532C185.074 304.333 184.222 303.454 183.799 302.869C183.605 302.836 183.423 302.808 183.249 302.752C183.06 302.992 182.832 303.33 182.46 303.606C181.798 304.099 179.988 305.044 177.989 303.902C176.867 303.257 176.399 302.265 176.206 301.766C176.106 301.804 176.02 301.927 175.91 301.959C174.782 302.276 173.521 302.097 172.491 301.36C171.9 301.711 171.053 302.121 169.964 301.973C169.395 302.106 168.732 302.164 168.015 301.974C167.687 301.886 167.398 301.737 167.137 301.595C166.432 301.493 165.734 301.247 165.143 300.756C164.703 300.388 164.393 299.97 164.201 299.629C164.156 299.642 164.129 299.721 164.083 299.732C163.161 299.955 162.102 299.86 161.164 299.335C160.536 298.982 160.144 298.499 159.885 298.137C159.639 298.152 159.381 298.23 159.106 298.195C159.044 298.187 158.99 298.136 158.929 298.126C158.529 298.179 158.14 298.196 157.746 298.13C156.971 298.407 155.962 298.547 154.8 298.015C154.719 297.977 154.656 297.881 154.581 297.84C154.246 298.025 153.825 298.214 153.301 298.303C152.183 298.493 151.065 298.223 150.196 297.579C150.131 297.531 150.105 297.437 150.045 297.387C149.663 297.537 149.221 297.598 148.688 297.61C148.597 297.623 148.506 297.704 148.411 297.711C147.432 297.782 146.65 297.417 146.004 297.008C145.966 296.996 145.914 297.026 145.876 297.012C145.729 296.962 145.604 296.861 145.474 296.799C144.517 297.105 143.303 297.167 142.156 296.477C141.629 296.159 141.289 295.74 141.017 295.372C140.968 295.384 140.926 295.428 140.875 295.438C139.549 295.696 138.279 295.261 137.405 294.477L137.381 294.44C137.062 294.44 136.721 294.508 136.364 294.415C135.177 294.106 134.47 293.353 134.109 292.85C134.004 292.822 133.866 292.877 133.76 292.84C133.528 292.757 133.354 292.597 133.163 292.489C132.721 292.813 131.732 293.415 130.347 293.264C129.34 293.153 128.655 292.651 128.147 292.19C127.355 292.457 126.305 292.65 125.187 292.136C124.283 291.719 123.789 291.048 123.502 290.595C123.158 290.368 122.881 290.128 122.665 289.874C122.592 289.898 122.527 289.967 122.449 289.988C122.399 290.002 122.34 289.975 122.29 289.986C122.236 290.045 122.207 290.152 122.146 290.211C121.874 290.472 120.217 291.968 117.9 291.098C117.632 290.996 117.437 290.8 117.225 290.667C116.221 291.02 114.929 291.111 113.717 290.336C113.292 290.065 112.999 289.73 112.76 289.43C112.036 289.218 111.392 288.913 110.951 288.471C110.866 288.385 110.831 288.26 110.758 288.174C110.676 288.193 110.599 288.268 110.512 288.281C109.114 288.501 108.102 287.88 107.374 287.263C106.761 287.357 106.055 287.377 105.304 287.079C105.047 286.976 104.864 286.786 104.66 286.654C104.238 286.973 103.579 287.413 102.627 287.5C100.783 287.666 99.5399 286.605 98.988 285.832C98.7901 285.555 98.7175 285.255 98.6178 285.018C98.3913 285.09 98.1644 285.217 97.8979 285.249C97.1018 285.341 96.4514 285.125 95.898 284.888C95.1915 284.745 94.5244 284.458 93.9845 283.97C93.7623 283.931 93.5414 283.936 93.3361 283.864L93.3296 283.894C93.1915 283.895 93.0638 283.822 92.9323 283.81C92.533 284.02 91.9556 284.279 91.1979 284.304C90.2038 284.334 89.338 283.949 88.6406 283.409C88.4358 283.373 88.2042 283.41 87.9857 283.334C87.5389 283.178 87.2261 282.893 86.9151 282.659C86.2335 282.493 85.5511 282.209 85.0147 281.68C84.4184 281.088 84.1329 280.426 83.9991 279.994C83.9005 279.672 83.9194 279.365 83.8995 279.111C83.3509 278.857 82.7961 278.469 82.3456 277.854C81.824 277.491 81.3758 277.029 81.0752 276.466C80.6942 276.37 80.2386 276.208 79.7887 275.905C79.7382 275.87 79.7035 275.816 79.6553 275.78C79.1419 275.656 78.2794 275.362 77.5558 274.535C77.3531 274.303 77.3123 273.996 77.1791 273.752C76.8565 273.412 76.5546 272.997 76.3367 272.455C76.3158 272.403 76.3264 272.341 76.308 272.289C76.2514 272.222 76.1439 272.189 76.0895 272.115C74.7768 270.333 75.4209 268.612 75.8727 267.724C75.5602 267.47 75.1423 267.127 74.8384 266.578C74.488 265.944 74.3946 265.237 74.4094 264.538C74.3881 264.493 74.3269 264.467 74.3067 264.42C73.8338 263.332 73.8751 262.139 74.334 261.135C74.864 259.436 76.2552 258.782 76.5212 258.661C76.5799 258.583 76.6361 258.511 76.6954 258.442C76.6693 258.413 76.6053 258.416 76.5797 258.386C76.4397 258.218 76.2025 257.921 76.002 257.496C75.8101 257.088 75.5193 256.295 75.6426 255.279C75.6767 255.004 75.8237 254.769 75.8967 254.535C75.788 254.082 75.682 253.455 75.8326 252.732C76.0461 251.723 76.6043 250.893 77.3325 250.335C77.8624 249.93 78.4226 249.757 78.8853 249.643C79.134 249.137 79.4594 248.721 79.8567 248.38C79.8958 248.161 79.8243 247.9 79.9144 247.657C80.2687 246.704 80.9827 245.874 81.958 245.408L83.7645 245.025C83.8618 244.715 83.9559 244.362 84.1688 244.025C84.5199 243.471 85.0692 242.881 85.8665 242.501C86.6503 242.129 87.4189 242.071 88.0223 242.128C88.5645 242.181 89.0266 242.352 89.3784 242.512C89.5355 242.325 89.6918 242.105 89.9187 241.924C90.7151 241.291 91.6947 241.071 92.674 241.136C93.4898 240.768 94.3001 240.793 95.0483 240.938C95.3473 240.674 95.7312 240.397 96.2279 240.198C96.847 239.951 97.4869 239.882 98.1067 239.927C98.6357 239.833 99.2331 239.827 99.9075 240.022C100.716 240.259 101.28 240.709 101.684 241.134C102.102 241.247 102.451 241.419 102.763 241.619C103.301 241.4 104.037 241.203 104.899 241.339C105.743 241.472 106.385 241.886 106.867 242.3C107.12 242.271 107.388 242.224 107.677 242.249C108.373 242.311 108.944 242.559 109.404 242.839C109.484 242.864 109.563 242.892 109.642 242.922C110.375 242.614 111.425 242.318 112.641 242.793L112.689 242.867C113.37 242.939 114.071 243.125 114.679 243.577C114.756 243.635 114.784 243.746 114.854 243.806C115.332 243.805 115.861 243.874 116.419 244.107C117.173 244.423 117.654 244.922 118.003 245.37C119.057 245.229 120.119 245.437 120.956 246.061C120.986 246.084 121.005 246.119 121.034 246.142L121.028 246.173C121.166 246.065 121.284 245.888 121.461 245.786C122.205 245.358 123.609 244.913 125.141 245.609C125.439 245.745 125.629 246.005 125.851 246.176C126.704 245.806 127.954 245.491 129.35 246.248C129.969 246.586 130.394 247.049 130.69 247.46C131.169 247.46 131.689 247.556 132.249 247.791C132.333 247.827 132.389 247.926 132.467 247.965C132.578 247.943 132.694 247.86 132.812 247.847C134.338 247.682 135.335 248.434 135.996 249.099C136.283 249.011 136.603 248.969 136.954 248.951C137.219 248.874 137.509 248.742 137.834 248.722C139.199 248.646 140.288 249.267 140.957 249.961L140.95 249.992L140.987 249.968C141.453 249.935 141.875 250.011 142.267 250.112C142.719 249.986 143.212 249.967 143.781 250.051C143.902 250.033 144.02 249.976 144.15 249.969C145.266 249.917 146.158 250.384 146.823 250.921C147.185 250.874 147.585 250.78 148.019 250.856C148.863 251.003 149.462 251.436 149.919 251.835C150.584 251.74 151.314 251.754 152.043 252.062C152.149 252.107 152.227 252.199 152.323 252.25C152.406 252.259 152.495 252.225 152.581 252.24C153.265 252.362 153.785 252.66 154.214 252.971C154.502 252.856 154.805 252.681 155.181 252.633C155.387 252.608 155.592 252.63 155.788 252.635C155.906 252.62 156.025 252.588 156.15 252.584C157.27 252.061 158.911 251.961 160.282 252.983C160.77 253.348 161.098 253.77 161.316 254.129L161.693 254.912L161.674 255.004C161.831 255.118 162.056 255.142 162.191 255.274C162.283 255.363 162.3 255.511 162.377 255.601C162.426 255.625 162.477 255.638 162.524 255.664C162.759 255.701 162.982 255.732 163.196 255.807C163.336 255.745 163.466 255.629 163.628 255.579C164.186 255.409 164.797 255.412 165.431 255.515C165.829 255.286 166.311 255.043 166.92 254.969C167.99 254.84 168.805 255.17 169.445 255.569C169.727 255.514 170.018 255.521 170.346 255.537C170.985 255.44 171.717 255.422 172.476 255.735C172.794 255.866 173.019 256.112 173.254 256.283C173.317 256.286 173.386 256.256 173.451 256.261C173.567 256.271 173.67 256.345 173.78 256.363C173.845 256.335 173.897 256.269 173.966 256.243C175.037 255.846 176.416 255.878 177.614 256.667C177.845 256.82 178 257.033 178.171 257.201C178.501 257.088 178.891 257.015 179.332 257C179.909 256.983 180.447 257.118 180.928 257.307C181.171 257.31 181.429 257.256 181.694 257.311C182.111 257.397 182.462 257.592 182.779 257.765C183.761 257.375 185.124 257.282 186.392 258.054C186.771 258.286 187.007 258.61 187.24 258.873C187.619 258.94 188.011 259.04 188.406 259.248C188.605 259.353 188.731 259.55 188.892 259.671C189.372 259.438 190.052 259.181 190.901 259.236C191.326 259.264 191.693 259.441 192.043 259.574C192.892 259.189 194.104 258.865 195.518 259.61ZM146.646 297.144C146.758 297.202 146.869 297.265 146.994 297.314C146.899 297.272 146.825 297.211 146.738 297.164L146.646 297.144ZM222.646 307.388C222.605 307.456 222.583 307.542 222.533 307.619C222.579 307.562 222.632 307.52 222.657 307.486L222.677 307.394L222.646 307.388ZM271.93 317.512C271.997 317.455 272.074 317.432 272.116 317.392C272.225 317.287 272.271 317.126 272.353 317.027L272.323 317.021C272.21 317.174 272.096 317.341 271.93 317.512ZM122.57 285.062C122.63 285.178 122.706 285.277 122.756 285.389L122.762 285.358C122.749 285.318 122.718 285.273 122.697 285.217C122.674 285.18 122.649 285.143 122.624 285.105L122.57 285.062ZM321.659 326.9C321.705 326.962 321.777 327.003 321.816 327.062C321.776 327.001 321.72 326.94 321.666 326.87L321.659 326.9ZM102.8 280.221L102.757 280.275L102.824 280.258L102.831 280.227L102.8 280.221ZM403.068 344.013C403.098 343.966 403.14 343.948 403.148 343.934C403.235 343.79 403.266 343.677 403.268 343.672C403.234 343.748 403.148 343.859 403.068 344.013ZM245.251 309.861L245.085 309.889L245.116 309.896L245.251 309.861ZM245.116 309.896L245.085 309.889L245.183 309.878L245.214 309.885L245.116 309.896ZM212.43 300.137C212.161 300.207 211.933 300.31 211.734 300.404C211.935 300.307 212.164 300.211 212.43 300.137ZM106.651 254.139C106.457 254.204 106.241 254.194 106.025 254.229L105.975 254.315C105.613 254.559 104.972 254.919 104.103 255.003C104.012 255.012 103.918 254.942 103.828 254.945C103.494 255.154 103.073 255.413 102.522 255.529C101.273 255.791 100.012 255.429 99.0936 254.673C98.3278 254.039 98.0106 253.294 97.8882 252.979L97.8641 252.942C97.7047 252.989 97.5559 253.098 97.3777 253.126L97.3471 253.12C96.6537 253.793 95.5738 254.57 93.9376 254.28C93.8204 254.259 93.7221 254.176 93.6144 254.147C93.2505 254.31 92.8901 254.522 92.4387 254.568C91.8382 254.63 91.32 254.555 90.9019 254.433C90.8674 255.128 90.6678 255.981 89.9847 256.794C89.4954 257.376 88.9343 257.687 88.4085 257.897C88.4822 258.374 88.4531 258.922 88.2847 259.532C88.4736 260.036 88.645 260.684 88.5497 261.441C88.497 261.852 88.3058 262.184 88.163 262.509L88.3479 263.443L88.1621 264.618C88.0345 265.054 87.811 265.391 87.616 265.684C87.724 266.02 87.8458 266.37 87.8601 266.79C88.421 266.903 89.1318 267.167 89.7912 267.775C90.835 268.741 91.0177 269.889 91.0183 270.72C91.0689 270.739 91.116 270.761 91.1647 270.783C91.7128 270.83 92.2546 270.954 92.7346 271.212C93.8378 271.016 94.9077 271.327 95.7478 271.917L96.5303 272.594L96.8061 273.1C96.8665 273.114 96.9286 273.122 96.9895 273.139C97.0825 273.165 97.1644 273.228 97.2516 273.259C97.3481 273.211 97.436 273.138 97.5417 273.097C98.1291 272.866 98.9508 272.707 99.8549 272.886C100.368 272.989 100.806 273.194 101.178 273.422C102.276 273.42 103.073 273.888 103.662 274.366C104.257 274.029 105.122 273.726 106.223 273.888C107.314 274.049 108.064 274.564 108.556 275.086C108.704 275.145 108.855 275.2 108.995 275.276C109.758 275.109 110.707 275.184 111.711 275.725C112.205 275.993 112.572 276.341 112.852 276.671C113.425 276.81 113.892 277.039 114.278 277.325C115.254 277.021 116.469 277.053 117.553 277.702C117.818 277.861 118.011 278.076 118.202 278.255C118.244 278.252 118.287 278.252 118.331 278.25C118.699 278.24 119.053 278.272 119.365 278.343C119.682 278.158 120.109 278.006 120.609 277.904C121.29 277.767 121.983 277.842 122.624 278.045C122.719 278.032 122.817 278.018 122.918 278.011C124.254 277.934 125.198 278.469 125.829 279.046C126.057 279.187 126.219 279.388 126.393 279.549C126.49 279.557 126.576 279.593 126.668 279.607C126.785 279.527 126.88 279.402 127.015 279.329C127.701 278.962 128.903 278.618 130.26 279.093C130.432 279.153 130.567 279.274 130.717 279.35C131.296 279.467 131.769 279.677 132.156 279.943C132.572 279.875 133.043 279.89 133.553 279.984C134.414 280.144 135.051 280.56 135.514 280.976C135.932 281.023 136.383 281.101 136.846 281.323C137.296 281.54 137.634 281.842 137.922 282.127C138.091 282.174 138.239 282.257 138.391 282.323L138.465 282.275C139.047 281.949 140.084 281.582 141.333 281.862C142.232 282.065 142.843 282.549 143.292 283.013C143.664 283.159 144.021 283.359 144.345 283.62C145.155 284.275 145.493 285.058 145.605 285.358C145.629 285.421 145.639 285.501 145.658 285.561C145.778 285.613 145.89 285.666 146.005 285.73C146.304 285.629 146.634 285.46 147.026 285.436C147.437 285.412 147.833 285.467 148.214 285.561C148.624 285.314 149.255 285.047 150.029 284.988C150.25 284.827 150.459 284.581 150.783 284.445C151.729 284.051 153.005 283.965 154.201 284.597C154.961 284.336 155.979 284.21 157.063 284.662C158.216 285.148 158.817 286.003 159.052 286.427C159.116 286.543 159.115 286.689 159.164 286.802C159.286 286.887 159.421 286.944 159.529 287.039C159.778 286.868 160.054 286.681 160.399 286.553C160.613 286.474 160.853 286.428 161.106 286.384C161.142 286.36 161.179 286.335 161.217 286.312C161.707 286.016 162.587 285.638 163.73 285.76C164.827 285.877 165.611 286.421 166.131 286.941C166.686 286.98 167.253 287.128 167.786 287.421C168.448 287.786 168.856 288.289 169.12 288.662C169.484 288.629 169.873 288.567 170.302 288.658C170.821 288.769 171.224 289.021 171.582 289.25C172.874 289.054 174.06 289.522 174.88 290.27C175.076 290.26 175.284 290.188 175.5 290.21C175.562 290.217 175.622 290.24 175.683 290.249C175.964 289.973 176.364 289.652 176.882 289.418C177.585 289.102 178.65 288.885 179.82 289.276C180.622 289.545 181.156 290.026 181.522 290.436C182.06 290.705 182.487 290.981 182.774 291.309C183.329 291.246 183.963 291.254 184.647 291.516C185.011 291.655 185.326 291.842 185.591 292.036C186.059 291.876 186.621 291.754 187.266 291.817C187.785 291.569 188.537 291.317 189.459 291.42C189.653 291.442 189.823 291.556 189.997 291.598C190.368 291.64 190.772 291.737 191.176 291.913C191.535 292.071 191.779 292.337 192.032 292.542C192.286 292.483 192.56 292.406 192.861 292.399C193.59 292.384 194.229 292.537 194.757 292.802L196.02 293.773L196.085 293.915C196.235 293.876 196.391 293.815 196.559 293.792C196.922 293.742 197.26 293.842 197.594 293.884L197.661 293.867C198.374 293.634 199.29 293.571 200.241 293.904C201.151 294.225 201.765 294.794 202.101 295.226C202.298 295.481 202.367 295.776 202.477 296.009C202.892 295.955 203.361 295.967 203.868 296.08C204.138 296.142 204.381 296.266 204.606 296.365C205.112 296.421 205.562 296.577 205.956 296.78L206.047 296.799C206.794 296.601 207.73 296.591 208.765 297.089C209.555 297.471 210.07 298.01 210.385 298.488C210.674 298.509 210.966 298.581 211.271 298.676C212.146 298.226 213.519 297.784 215.078 298.655C215.451 298.471 215.947 298.31 216.535 298.262C217.717 298.166 218.759 298.608 219.49 299.241C220.113 299.783 220.426 300.38 220.557 300.682C220.636 300.865 220.663 301.049 220.704 301.193C220.797 301.221 220.869 301.308 220.96 301.343C221.077 301.24 221.175 301.102 221.319 301.004C221.717 300.734 222.466 300.311 223.485 300.282C224.612 300.251 225.571 300.699 226.244 301.284C226.288 301.323 226.334 301.368 226.377 301.408C226.951 301.19 227.725 301.031 228.623 301.214L228.714 301.234C228.92 301.102 229.137 300.944 229.406 300.838C229.999 300.605 230.834 300.437 231.749 300.633C232.661 300.83 233.333 301.315 233.777 301.767C233.814 301.804 233.845 301.847 233.879 301.885C234.367 301.733 234.958 301.651 235.634 301.746C236.99 301.939 237.776 302.758 238.232 303.353C238.494 303.527 238.686 303.743 238.874 303.937C239.67 303.544 240.954 303.153 242.406 303.857L242.436 303.863C242.72 303.923 242.982 303.989 243.218 304.093L243.279 304.106C243.687 304.002 244.166 303.966 244.702 304.025C244.75 304.031 244.808 304.051 244.855 304.058C245.41 303.931 246.069 303.901 246.767 304.081C247.43 304.253 247.949 304.595 248.344 304.927C248.951 304.891 249.593 304.995 250.246 305.299C250.278 305.297 250.311 305.29 250.344 305.288C251.717 305.23 252.646 305.854 253.26 306.451C253.72 306.412 254.213 306.468 254.753 306.641C254.961 306.599 255.177 306.533 255.416 306.526C256.362 306.5 257.171 306.844 257.81 307.291C258.248 307.459 258.629 307.633 258.93 307.88C259.484 307.83 260.107 307.919 260.753 308.172C260.946 308.247 261.102 308.379 261.264 308.472C261.907 308.303 262.689 308.234 263.58 308.549C263.802 308.628 263.998 308.766 264.183 308.869C264.492 308.621 264.953 308.323 265.553 308.138C266.594 307.82 267.747 307.932 268.735 308.495C269.248 308.48 269.808 308.571 270.393 308.815C271.41 309.24 271.951 309.975 272.248 310.455C272.368 310.517 272.517 310.526 272.633 310.601C272.833 310.732 272.988 310.919 273.142 311.061C273.407 311.092 273.66 311.169 273.93 311.26C274.122 311.247 274.332 311.214 274.544 311.231C274.715 311.245 274.868 311.332 275.026 311.365C275.402 311.238 275.818 311.096 276.298 311.093C276.68 310.897 277.184 310.729 277.793 310.675C278.754 310.592 279.569 310.902 280.242 311.324C281.391 311.81 282.007 312.675 282.232 313.089C282.666 312.85 283.225 312.656 283.898 312.612C284.853 312.55 285.587 312.838 286.171 313.191C286.446 313.269 286.678 313.391 286.903 313.506C287.015 313.519 287.136 313.494 287.252 313.517C287.55 313.576 287.799 313.738 288.045 313.845C288.549 313.466 289.36 313.024 290.458 313.016C292.116 313.006 293.08 313.942 293.625 314.648C294.234 314.512 294.949 314.494 295.714 314.74C295.801 314.753 295.906 314.749 295.996 314.768C296.844 314.953 297.454 315.364 297.89 315.778C298.368 315.616 298.965 315.494 299.657 315.578C300.22 315.648 300.716 315.824 301.122 316.05C301.974 315.924 302.922 316.025 303.795 316.554C304.124 316.754 304.361 317.006 304.577 317.231C305.251 316.89 306.217 316.635 307.388 316.934C307.755 317.028 308.049 317.236 308.345 317.393C308.878 317.296 309.495 317.262 310.183 317.464C311.312 317.797 311.966 318.525 312.357 319.109C312.905 318.842 313.682 318.574 314.648 318.701C315.184 318.773 315.622 319.005 316.009 319.214C316.456 319.061 316.997 318.964 317.617 319.013C319.574 319.168 320.55 320.562 320.846 321.105C320.915 321.231 320.939 321.369 320.989 321.486C321.046 321.421 321.098 321.333 321.163 321.268C321.399 321.03 322.007 320.459 322.99 320.187C324.175 319.862 325.41 320.142 326.396 320.847C326.811 320.823 327.232 320.869 327.675 320.991C328.912 320.648 330.325 320.902 331.398 321.814C331.572 321.963 331.672 322.162 331.803 322.315C332.136 322.402 332.495 322.44 332.822 322.628C333.505 323.02 333.914 323.54 334.173 323.937C334.554 323.984 334.897 324.085 335.23 324.226C335.406 324.113 335.571 323.958 335.786 323.865C336.501 323.557 337.548 323.368 338.687 323.747C339.765 324.108 340.428 324.8 340.758 325.273C340.824 325.367 340.829 325.495 340.883 325.587C341.49 325.351 342.308 325.165 343.258 325.389C343.706 325.249 344.256 325.188 344.883 325.256C345.543 325.327 346.094 325.502 346.532 325.766C346.908 325.642 347.366 325.562 347.883 325.574C348.889 325.596 349.756 325.974 350.373 326.486C350.757 326.806 350.977 327.198 351.175 327.519C351.211 327.543 351.256 327.552 351.291 327.576C351.712 327.526 352.18 327.495 352.688 327.617C352.804 327.645 352.904 327.714 353.011 327.75C353.184 327.708 353.358 327.628 353.552 327.609C353.887 327.577 354.209 327.612 354.502 327.651C354.961 327.459 355.569 327.32 356.289 327.36C356.874 327.393 357.393 327.536 357.835 327.753L358.941 328.563L359.452 329.311L359.507 329.354C359.775 329.539 359.961 329.77 360.143 329.969C360.716 330.355 361.094 330.776 361.306 331.11C361.508 330.872 361.741 330.543 362.119 330.293C362.574 329.991 363.493 329.516 364.72 329.632C365.646 329.72 366.337 330.141 366.854 330.564C367.082 330.532 367.317 330.452 367.578 330.463C367.727 330.469 367.873 330.503 368.012 330.523C368.17 330.512 368.332 330.459 368.503 330.468C368.943 330.492 369.328 330.649 369.683 330.782C370.042 330.635 370.471 330.541 370.955 330.51C371.503 330.474 371.996 330.53 372.424 330.662L372.546 330.688C373.223 330.809 373.739 331.174 374.191 331.517C374.422 331.548 374.62 331.619 374.826 331.684C375.828 331.224 377.32 331.112 378.69 331.994C378.874 332.113 378.998 332.28 379.145 332.41C379.894 332.406 380.505 332.626 381.02 332.905C382.003 332.588 383.289 332.47 384.515 333.296L384.546 333.303C385.592 333.567 386.236 334.204 386.643 334.707C387.152 334.548 387.8 334.473 388.52 334.595C389.057 334.687 389.505 334.884 389.881 335.108C390.06 335.018 390.294 334.997 390.527 334.925C391.367 334.514 392.708 334.106 394.204 334.908C395.113 335.396 395.583 336.122 395.851 336.632C396.443 336.609 397.098 336.725 397.746 337.035C397.928 337.123 398.068 337.257 398.22 337.359C398.334 337.38 398.452 337.371 398.563 337.4C398.997 337.326 399.496 337.318 400.027 337.424C400.557 337.53 401 337.76 401.375 337.998C401.712 337.959 402.073 337.878 402.473 337.944C403.489 338.111 404.181 338.634 404.653 339.11C405.264 339.317 405.768 339.632 406.156 340.005C406.327 339.74 406.532 339.418 406.822 339.124C407.062 338.882 408.753 337.189 411.205 338.043L412.702 338.968C412.74 339.005 412.77 339.049 412.805 339.086C412.876 339.092 412.946 339.12 413.019 339.131C413.445 339.096 413.917 339.128 414.427 339.271C415.568 339.591 416.209 340.319 416.584 340.847C417.028 340.732 417.557 340.651 418.142 340.731C418.969 340.848 419.654 341.224 420.153 341.638C420.355 341.806 420.498 342.015 420.643 342.189C420.703 342.179 420.777 342.176 420.84 342.167C421.354 342.101 421.868 342.141 422.352 342.265C422.434 342.207 422.496 342.114 422.588 342.06C423.328 341.616 424.795 341.116 426.396 341.879C426.878 342.109 427.201 342.455 427.489 342.75C427.539 342.751 427.597 342.749 427.648 342.752C428.442 342.799 429.105 343.104 429.638 343.462C429.687 343.458 429.747 343.466 429.797 343.464L431.345 343.697C431.546 343.771 431.721 343.876 431.893 343.974C432.343 343.915 432.838 343.899 433.351 344.028C433.483 344.018 433.626 344.017 433.768 344.021C435.706 344.079 436.759 345.367 437.122 345.98L437.115 346.01C437.167 346.023 437.21 346.059 437.261 346.073C437.403 345.98 437.538 345.865 437.706 345.784C438.403 345.451 439.422 345.209 440.541 345.524C440.817 345.603 441.043 345.755 441.266 345.87C441.597 345.677 441.995 345.544 442.442 345.449C442.532 345.319 442.607 345.16 442.723 345.03C443.677 343.958 445.11 343.492 446.477 343.751C446.668 343.788 446.849 343.873 447.014 343.929C447.296 343.673 447.603 343.394 447.997 343.211C448.509 342.976 448.997 342.87 449.418 342.842C449.34 342.533 449.187 342.188 449.198 341.773C449.226 340.776 449.627 339.787 450.352 339.048C450.378 339.021 450.406 338.994 450.433 338.969C449.945 337.719 450.081 336.262 450.933 335.114C451.114 334.87 451.344 334.707 451.534 334.539C451.462 334.343 451.312 334.175 451.271 333.971C450.886 333.682 450.503 333.271 450.195 332.72C449.716 332.296 449.261 331.72 449.016 330.904C448.982 330.792 449.018 330.657 448.996 330.549C448.729 330.5 448.459 330.402 448.159 330.275C447.954 330.219 447.703 330.231 447.487 330.132C446.069 329.477 445.454 328.25 445.241 327.322C444.967 327.114 444.697 326.916 444.489 326.651C444.272 326.376 444.186 326.064 444.064 325.794C443.738 325.807 443.39 325.847 443.016 325.763C442.408 325.625 441.926 325.353 441.535 325.065C441.025 325.206 440.472 325.226 439.831 325.118L439.787 325.173C439.454 325.443 438.951 325.759 438.282 325.939C437.638 326.112 436.859 326.162 436.052 325.912C435.262 325.668 434.683 325.207 434.306 324.806C433.992 324.471 433.869 324.082 433.724 323.788C433.205 323.894 432.656 323.989 432.05 323.848C431.17 324.144 429.988 324.365 428.743 323.624C428.658 323.573 428.608 323.473 428.531 323.419C428.045 323.769 427.14 324.323 425.867 324.227C424.694 324.137 423.917 323.527 423.381 322.995C422.571 322.861 421.964 322.513 421.492 322.115C420.818 321.807 420.391 321.337 420.078 320.951C419.87 321.122 419.671 321.36 419.385 321.507C418.827 321.792 417.94 322.07 416.873 321.9C415.892 321.741 415.173 321.239 414.686 320.764C414.352 320.885 414.002 321.078 413.561 321.1C412.136 321.167 411.138 320.461 410.512 319.813L410.481 319.806C410.075 319.943 409.606 320.068 409.056 320.046C408.191 320.009 407.527 319.679 407.006 319.323C406.678 319.294 406.415 319.135 406.139 319.043C405.927 319.097 405.704 319.23 405.456 319.249C404.098 319.348 402.981 318.766 402.289 318.065C402.161 317.934 402.098 317.75 402 317.62L400.977 316.572C400.752 316.236 400.63 315.936 400.57 315.783C400.259 315.549 399.968 315.372 399.781 315.136C399.499 315.16 399.21 315.118 398.899 315.076C398.523 315.414 397.26 316.418 395.406 316.027C394.865 316.315 394.095 316.596 393.133 316.502C392.318 316.421 391.703 316.095 391.217 315.744C390.984 315.879 390.756 316.092 390.452 316.188C389.704 316.424 388.751 316.47 387.787 316.101C386.875 315.75 386.289 315.154 385.971 314.724C385.936 314.676 385.944 314.6 385.912 314.552C385.717 314.421 385.587 314.242 385.433 314.099C384.64 314.077 383.853 313.907 383.155 313.391C382.623 313.505 382.001 313.564 381.305 313.381C381.063 313.316 380.868 313.179 380.665 313.085C380.563 313.102 380.466 313.17 380.357 313.179C379.692 313.236 379.08 313.107 378.534 312.888C378.385 312.985 378.263 313.151 378.076 313.238C377.574 313.471 376.845 313.699 375.982 313.623C375.088 313.545 374.34 313.159 373.78 312.708C372.823 311.935 372.481 310.979 372.389 310.687C372.32 310.47 372.341 310.236 372.304 310.03C372.242 310.017 372.19 309.977 372.128 309.961C371.899 310.066 371.673 310.246 371.382 310.313C370.599 310.495 369.85 310.341 369.159 310.097C368.894 310.098 368.657 310.08 368.406 310.032C368.209 310.163 368.035 310.391 367.763 310.503C366.942 310.838 365.765 310.996 364.577 310.464C364.235 310.31 363.987 310.067 363.744 309.872C363.533 309.844 363.31 309.865 363.089 309.797C362.546 309.629 362.11 309.375 361.768 309.1C361.216 309.171 360.578 309.178 359.888 308.925C359.566 308.805 359.305 308.625 359.06 308.461C358.817 308.574 358.59 308.799 358.271 308.868C357.413 309.053 356.536 308.866 355.732 308.488C355.306 308.749 354.684 309.062 353.873 309.116C351.255 309.281 350.148 307.173 349.943 306.715C349.38 306.788 348.742 306.806 348.087 306.576C347.87 306.499 347.696 306.362 347.515 306.263C347.477 306.256 347.424 306.275 347.386 306.267C346.453 306.078 345.805 305.622 345.352 305.164C344.897 305.088 344.504 304.973 344.156 304.782C343.742 304.989 343.192 305.206 342.495 305.228C341.345 305.263 340.377 304.816 339.707 304.219C339.446 303.987 339.299 303.699 339.133 303.459C338.763 303.457 338.417 303.398 338.051 303.292C337.371 303.661 336.289 304.03 335.006 303.636C334.895 303.72 334.815 303.871 334.684 303.951C333.835 304.463 332.202 304.963 330.522 303.992C329.581 303.446 329.094 302.689 328.899 302.306C328.878 302.264 328.883 302.211 328.864 302.17C328.615 302.375 328.344 302.684 327.918 302.864C326.986 303.259 325.654 303.386 324.378 302.686C323.929 302.439 323.608 302.119 323.346 301.828C322.201 301.84 321.197 301.412 320.509 300.746C320.226 300.471 320.117 300.119 319.962 299.863C319.572 299.723 319.189 299.543 318.841 299.273C318.727 299.184 318.654 299.05 318.557 298.957C318.364 299.183 317.97 299.682 317.276 300.027C316.357 300.482 314.891 300.731 313.465 299.92C312.624 299.439 312.167 298.763 311.921 298.313C311.171 298.702 309.996 299.048 308.645 298.544C308.549 298.585 308.484 298.708 308.379 298.743C307.204 299.127 305.811 298.98 304.703 298.153C304.633 298.101 304.585 298.009 304.521 297.955C304.296 297.898 304.046 297.909 303.818 297.805C303.624 297.716 303.481 297.549 303.32 297.444C302.924 297.625 302.434 297.804 301.832 297.83C300.444 297.891 299.362 297.251 298.716 296.561C298.669 296.512 298.62 296.471 298.582 296.437C298.458 296.322 298.417 296.145 298.317 296.029L298.287 296.022C297.938 296.103 297.564 296.253 297.126 296.223C296.413 296.172 295.809 295.938 295.331 295.65C294.498 295.775 293.552 295.769 292.67 295.244C292.475 295.127 292.339 294.951 292.185 294.821C290.657 294.354 289.971 293.195 289.734 292.671C289.472 292.694 289.208 292.663 288.914 292.624C288.599 292.897 287.935 293.378 286.959 293.551C285.616 293.785 284.373 293.312 283.533 292.535C283.421 292.431 283.384 292.27 283.293 292.164C282.852 292.201 282.394 292.197 281.909 292.062C281.512 292.322 281.006 292.615 280.332 292.717C279.333 292.868 278.525 292.614 277.873 292.259C277.118 292.351 276.26 292.351 275.402 291.861C274.258 291.203 273.796 290.2 273.655 289.86C273.585 289.693 273.582 289.513 273.538 289.356C273.492 289.294 273.417 289.25 273.381 289.195C273.271 289.029 273.249 288.832 273.173 288.672C272.911 288.915 272.623 289.287 272.133 289.505C271.593 289.744 270.814 289.936 269.898 289.797C268.968 289.654 268.246 289.227 267.753 288.766L267.729 288.729C267.571 288.726 267.408 288.807 267.238 288.784C266.089 288.623 265.245 288.029 264.766 287.492C264.736 287.458 264.721 287.414 264.693 287.38C264.261 287.435 263.805 287.369 263.285 287.241C262.941 287.33 262.563 287.428 262.131 287.411C261.878 287.401 261.65 287.31 261.428 287.261C260.9 287.491 260.239 287.635 259.451 287.544C259.016 287.601 258.553 287.562 258.036 287.435C257.474 287.579 256.788 287.681 256.044 287.491C255.414 287.328 254.936 287.004 254.552 286.694C254.33 286.642 254.07 286.674 253.842 286.575C253.016 286.215 252.524 285.635 252.216 285.208C251.849 285.324 251.418 285.455 250.92 285.443C250.627 285.436 250.361 285.332 250.095 285.268C249.583 285.634 248.679 286.189 247.401 286.069C246.17 285.951 245.385 285.291 244.873 284.733C244.424 284.459 244.069 284.19 243.835 283.905C243.666 283.85 243.465 283.842 243.291 283.758C243.158 283.693 243.087 283.539 242.97 283.466C242.524 283.741 241.903 284.042 241.111 284.093C239.678 284.182 238.717 283.472 238.087 282.843C237.602 283.086 236.957 283.325 236.138 283.292C235.563 283.268 235.079 283.107 234.653 282.912L234.586 282.93C233.712 282.885 232.992 282.536 232.426 282.119C232.149 282.202 231.873 282.388 231.534 282.409C230.184 282.488 229.07 281.927 228.367 281.224C228.156 281.014 228.078 280.732 227.94 280.527C227.61 280.696 227.221 280.897 226.727 280.972C225.946 281.087 225.211 280.918 224.562 280.639C223.931 280.531 223.443 280.311 223.031 280.026C222.569 279.86 222.215 279.595 221.899 279.338C221.758 279.315 221.598 279.38 221.452 279.339C220.713 279.133 220.169 278.749 219.771 278.375C219.642 278.421 219.52 278.544 219.377 278.579C218.61 278.761 217.766 278.657 216.941 278.316C216.656 278.466 216.303 278.547 215.883 278.635C215.176 278.994 214.067 279.395 212.723 278.921C212.068 278.69 211.593 278.325 211.232 277.966C210.969 278.007 210.691 278.058 210.386 278.041C209.75 278.006 209.234 277.804 208.792 277.575C208.75 277.569 208.705 277.587 208.663 277.579C208.062 277.47 207.563 277.236 207.162 276.973C206.756 276.838 206.354 276.657 205.981 276.37C205.748 276.191 205.6 275.964 205.436 275.775C205.134 275.669 204.8 275.605 204.521 275.421C204.429 275.36 204.36 275.274 204.279 275.21C203.855 275.248 203.44 275.146 202.975 275.029C202.609 275.178 202.179 275.364 201.653 275.387C200.392 275.438 199.336 274.888 198.67 274.241C198.432 274.01 198.33 273.717 198.188 273.5L198.127 273.487C197.754 273.223 197.508 272.887 197.292 272.607C196.907 272.872 196.174 273.297 195.157 273.335C194.022 273.376 193.04 272.948 192.361 272.357C192.072 272.105 191.916 271.784 191.74 271.522C191.442 271.506 191.167 271.453 190.878 271.371C190.792 271.453 190.755 271.595 190.653 271.675C190.305 271.949 189.497 272.511 188.295 272.547C187.414 272.57 186.689 272.253 186.103 271.89C184.959 271.597 184.241 270.934 183.859 270.422C183.283 270.859 182.3 271.466 180.918 271.331C179.868 271.227 179.148 270.716 178.627 270.237C178.554 270.226 178.487 270.206 178.413 270.191C177.789 270.33 177.072 270.355 176.239 270.048C175.146 269.873 174.438 269.316 173.956 268.764C173.873 268.737 173.796 268.713 173.718 268.682C173.25 268.816 172.743 268.855 172.136 268.761C171.91 268.813 171.682 268.98 171.416 268.991C170.522 269.027 169.682 268.774 169.003 268.319C168.646 268.363 168.277 268.346 167.864 268.268C167.254 268.351 166.551 268.347 165.777 268.016C165.355 267.835 165.049 267.563 164.774 267.324C164.356 267.209 163.919 267.051 163.518 266.769C163.487 266.748 163.468 266.711 163.439 266.689C163.359 266.644 163.288 266.593 163.214 266.545C163.161 266.563 163.121 266.625 163.066 266.641C161.655 267.057 160.19 266.66 159.173 265.718L159.148 265.681C158.943 265.584 158.741 265.515 158.57 265.398C158.284 265.676 157.731 266.136 156.891 266.383C155.468 266.799 153.999 266.405 152.998 265.46C152.874 265.343 152.83 265.17 152.733 265.052C151.874 265.315 150.766 265.477 149.568 264.763C149.081 264.472 148.735 264.103 148.47 263.763C148.14 263.917 147.785 264.131 147.325 264.19C145.565 264.416 144.26 263.489 143.623 262.668C143.553 262.578 143.519 262.468 143.461 262.378C143.412 262.386 143.369 262.439 143.319 262.444C142.916 262.656 142.38 262.857 141.72 262.903C141.681 262.906 141.637 262.875 141.598 262.877C141.527 262.889 141.463 262.951 141.389 262.96C140.83 263.027 140.319 262.955 139.852 262.825C139.728 262.844 139.61 262.93 139.477 262.937C137.664 263.035 136.56 261.968 136.034 261.247C135.797 261.278 135.55 261.358 135.279 261.342C134.991 261.324 134.719 261.208 134.46 261.136C133.591 261.433 132.433 261.641 131.208 260.956C130.958 260.816 130.81 260.579 130.62 260.416C130.051 260.339 129.566 260.167 129.13 259.907C128.472 260.258 127.444 260.677 126.141 260.294C124.545 259.824 123.852 258.62 123.647 258.199C123.622 258.148 123.61 258.077 123.588 258.026C123.409 257.956 123.255 257.852 123.101 257.763C122.534 257.972 121.843 258.146 121.008 257.989C120.571 257.907 120.212 257.731 119.885 257.559C119.16 257.729 118.306 257.756 117.43 257.388C116.73 257.094 116.261 256.65 115.942 256.273C115.308 255.791 114.922 255.206 114.763 254.905C114.716 254.814 114.699 254.714 114.662 254.628C114.538 254.574 114.437 254.491 114.321 254.427C114.171 254.4 114.005 254.438 113.85 254.391C113.787 254.372 113.739 254.312 113.679 254.291C113.5 254.294 113.315 254.388 113.121 254.364C112.631 254.303 112.249 254.058 111.882 253.877C111.521 254.133 111.104 254.471 110.513 254.608L109.952 254.841C109.343 254.978 108.61 254.999 107.802 254.735C107.349 254.585 106.964 254.37 106.651 254.139ZM145.42 285.478L145.512 285.497L145.168 285.009L145.42 285.478ZM80.6599 268.199C80.6405 268.218 80.6105 268.243 80.5793 268.277L80.6098 268.284C80.6376 268.259 80.6625 268.23 80.6905 268.205L80.6599 268.199ZM80.8808 267.159C80.7428 267.153 80.6093 267.112 80.4769 267.105L80.4093 267.123L80.4704 267.136L80.5602 267.315L80.6603 267.144C80.7283 267.14 80.8006 267.161 80.8808 267.159ZM80.5602 267.315L80.4704 267.136C80.5259 267.13 80.5897 267.149 80.6603 267.144L80.5602 267.315ZM459.113 332.699C458.949 332.92 458.901 333.134 458.85 333.186C458.91 333.124 458.963 332.931 459.107 332.73L459.113 332.699ZM225.105 275.228L225.118 275.167C225.059 275.08 224.949 275.037 224.906 274.962C224.951 275.041 225.032 275.123 225.105 275.228ZM401.379 311.674C401.169 311.91 401.044 312.145 400.961 312.288C401.053 312.111 401.251 311.886 401.46 311.595C401.435 311.621 401.397 311.654 401.379 311.674ZM147.464 257.223C147.498 257.368 147.511 257.58 147.598 257.795C147.62 257.847 147.667 257.917 147.712 258.011C147.587 257.695 147.505 257.426 147.464 257.223ZM112.022 249.913C111.972 250.015 111.876 250.127 111.785 250.278C111.892 250.143 111.965 250.026 112.015 249.944L112.022 249.913ZM161.601 260.004C161.515 260.117 161.284 260.22 161.063 260.433C161.041 260.477 161.021 260.517 161.006 260.549C161.309 260.296 161.525 260.105 161.601 260.004ZM162.558 260.463C162.519 260.504 162.472 260.53 162.44 260.566C162.466 260.535 162.521 260.527 162.551 260.494L162.558 260.463ZM112.066 249.859L112.059 249.889L112.096 249.865C112.116 249.83 112.137 249.798 112.146 249.78L112.153 249.749C112.143 249.771 112.094 249.8 112.066 249.859ZM258.453 280.367L258.446 280.398C258.409 280.461 258.369 280.505 258.352 280.538C258.336 280.57 258.336 280.623 258.333 280.629C258.351 280.588 258.421 280.5 258.483 280.374L258.453 280.367ZM198.063 267.627L197.867 267.649L198.338 267.685L197.954 267.54L198.063 267.627ZM198.118 267.67L197.867 267.649L198.063 267.627L198.118 267.67ZM198.338 267.685L198.118 267.67L198.063 267.627L198.131 267.609L198.338 267.685ZM198.131 267.609L198.063 267.627L197.954 267.54L198.131 267.609ZM382.061 306.513L382.048 306.574C382.048 306.61 382.066 306.642 382.066 306.642L382.048 306.574L382.061 306.513ZM181.639 263.88L181.68 263.537L181.534 263.474L181.639 263.88ZM181.68 263.537L181.639 263.88L181.534 263.474L181.68 263.537ZM424.83 311.067C424.56 310.812 424.19 310.59 423.76 310.393C424.163 310.586 424.54 310.793 424.83 311.067ZM107.031 242.431C107.451 242.455 107.898 242.515 108.376 242.717C107.919 242.526 107.467 242.44 107.031 242.431Z" fill="white"/>
<circle cx="367" cy="118" r="32" fill="white"/>
<path d="M120.69 174.205C118.254 182.699 112.837 188.598 108.59 187.38C104.342 186.162 102.874 178.289 105.31 169.795C107.745 161.301 113.163 155.402 117.41 156.62C121.657 157.838 123.126 165.711 120.69 174.205Z" fill="white"/>
<path d="M155.655 120.777C157.792 129.351 156.05 137.168 151.763 138.237C147.476 139.306 142.268 133.222 140.13 124.648C137.992 116.074 139.734 108.257 144.021 107.188C148.308 106.119 153.517 112.203 155.655 120.777Z" fill="white"/>
<path d="M205.878 154.611C207.412 163.313 205.129 170.99 200.778 171.757C196.427 172.524 191.655 166.092 190.121 157.389C188.586 148.687 190.87 141.01 195.221 140.243C199.572 139.476 204.343 145.909 205.878 154.611Z" fill="white"/>
<path d="M224.69 97.2051C222.254 105.699 216.837 111.598 212.59 110.38C208.342 109.162 206.874 101.289 209.31 92.7949C211.745 84.3007 217.163 78.402 221.41 79.6198C225.657 80.8377 227.126 88.7109 224.69 97.2051Z" fill="white"/>
<path d="M261.851 145.456C255.825 151.918 248.32 154.715 245.088 151.701C241.857 148.688 244.123 141.006 250.149 134.544C256.176 128.081 263.681 125.285 266.912 128.298C270.144 131.311 267.878 138.993 261.851 145.456Z" fill="white"/>
<path d="M290.77 81.5289C295.712 88.8547 296.748 96.7964 293.085 99.2671C289.422 101.738 282.447 97.8018 277.506 90.476C272.564 83.1502 271.528 75.2085 275.191 72.7379C278.854 70.2672 285.829 74.2031 290.77 81.5289Z" fill="white"/>
<path d="M135.212 359.265C140.153 366.59 141.189 374.532 137.526 377.003C133.864 379.473 126.888 375.538 121.947 368.212C117.006 360.886 115.969 352.944 119.632 350.474C123.295 348.003 130.27 351.939 135.212 359.265Z" fill="white"/>
<path d="M197.519 380.713C196.443 389.484 192.015 396.157 187.629 395.619C183.244 395.08 180.562 387.534 181.639 378.763C182.716 369.993 187.144 363.319 191.529 363.857C195.914 364.396 198.596 371.942 197.519 380.713Z" fill="white"/>
<path d="M324.596 421.596C318.029 427.509 310.309 429.641 307.353 426.357C304.396 423.074 307.323 415.619 313.89 409.706C320.457 403.793 328.177 401.662 331.133 404.945C334.09 408.229 331.163 415.684 324.596 421.596Z" fill="white"/>
<path d="M264.071 395.844C265.301 404.595 262.751 412.187 258.375 412.802C254 413.417 249.456 406.822 248.227 398.071C246.997 389.321 249.547 381.728 253.922 381.113C258.297 380.499 262.841 387.094 264.071 395.844Z" fill="white"/>
<path d="M383.395 423.014C391.337 426.888 396.205 433.247 394.268 437.218C392.331 441.189 384.323 441.268 376.381 437.395C368.438 433.521 363.57 427.161 365.507 423.19C367.444 419.219 375.452 419.14 383.395 423.014Z" fill="white"/>
</svg>
