<svg width="512" height="512" viewBox="0 0 512 512" fill="none" xmlns="http://www.w3.org/2000/svg">
<path d="M471.384 24.6321C473.43 24.6809 475.47 25.1198 477.38 25.9495C477.619 26.0532 477.855 26.1636 478.09 26.2795C479.436 26.945 480.707 27.8126 481.86 28.8801C482.013 29.0216 482.165 29.1652 482.313 29.3137C482.456 29.4563 482.594 29.6018 482.73 29.7483C484.625 31.7885 485.888 34.2022 486.521 36.7415C486.553 36.8689 486.585 36.9963 486.613 37.1243C487.4 40.6469 486.984 44.384 485.366 47.6799C485.273 47.8701 485.175 48.0583 485.073 48.2454C484.506 49.292 483.814 50.2883 482.996 51.2131C482.777 51.4607 482.55 51.7039 482.313 51.9407L52.3926 481.862C52.3223 481.932 52.2509 482.001 52.1797 482.07C50.7369 483.461 49.0973 484.527 47.3525 485.27C47.1486 485.357 46.944 485.441 46.7373 485.519C45.1602 486.114 43.5079 486.45 41.8457 486.53C41.7181 486.536 41.5905 486.54 41.4629 486.543C41.0791 486.552 40.6951 486.548 40.3115 486.53C39.8002 486.505 39.2898 486.456 38.7822 486.383C38.5285 486.346 38.2755 486.304 38.0234 486.255C37.3929 486.133 36.7683 485.973 36.1533 485.775C35.6615 485.616 35.1758 485.433 34.6982 485.226C34.3402 485.07 33.9868 484.901 33.6387 484.718C33.2902 484.535 32.9473 484.338 32.6104 484.127C32.3856 483.987 32.1634 483.84 31.9443 483.688C31.8349 483.611 31.7261 483.534 31.6182 483.454C31.2945 483.216 30.9779 482.965 30.6689 482.699C30.3598 482.434 30.0585 482.154 29.7656 481.862C29.4411 481.537 29.1336 481.202 28.8428 480.858C28.7661 480.767 28.6906 480.675 28.6162 480.583C28.3401 480.241 28.0807 479.89 27.8369 479.531C27.6523 479.26 27.4756 478.985 27.3096 478.705C27.1347 478.411 26.9708 478.111 26.8164 477.808C25.0948 474.427 24.6522 470.562 25.4902 466.933C25.5369 466.731 25.588 466.53 25.6426 466.329C26.0602 464.795 26.7106 463.312 27.5928 461.934C27.9196 461.423 28.2773 460.926 28.668 460.448C28.8032 460.282 28.9431 460.119 29.0859 459.957C29.2133 459.813 29.3432 459.671 29.4766 459.531C29.5713 459.431 29.6678 459.332 29.7656 459.235L459.687 29.3137C459.979 29.0208 460.281 28.7413 460.59 28.4758C461.105 28.0334 461.642 27.629 462.196 27.2629C462.64 26.9701 463.095 26.7023 463.56 26.4583C463.908 26.2752 464.261 26.105 464.619 25.9495C465.097 25.742 465.582 25.5593 466.074 25.4006C466.689 25.2023 467.314 25.0422 467.944 24.9202C468.196 24.8714 468.449 24.8288 468.703 24.7922C468.957 24.7557 469.211 24.7248 469.466 24.7004C469.848 24.6638 470.232 24.6412 470.616 24.6321C470.744 24.629 470.872 24.6272 471 24.6272L471.384 24.6321ZM172.793 444.183C175.228 452.677 170.317 461.537 161.823 463.973L100.303 481.614C93.242 483.638 85.9281 480.586 82.2617 474.619L159.4 397.481L172.793 444.183ZM436.52 120.362C463.848 157.493 480 203.36 480 253C480 270.61 477.965 287.745 474.122 304.184C476.33 307.855 477.067 312.399 475.793 316.842L431.691 470.644C429.256 479.138 420.395 484.049 411.901 481.614L350.38 463.973C341.886 461.537 336.975 452.677 339.41 444.183L383.513 290.38C385.949 281.886 394.809 276.975 403.303 279.41L444.211 291.14C446.696 278.813 448 266.059 448 253C448 212.21 435.277 174.392 413.587 143.294L436.52 120.362ZM256 29.0002C306.988 29.0003 353.994 46.0388 391.643 74.7288L368.774 97.5969C337.111 74.5786 298.141 61.0003 256 61.0002C149.961 61.0003 64.0001 146.962 64 253C64 266.079 65.3079 278.852 67.7998 291.196L108.901 279.41C117.395 276.975 126.256 281.886 128.691 290.38L139.231 327.14L61.6182 404.753L36.4102 316.842C35.1646 312.498 35.8411 308.059 37.9346 304.432C34.0544 287.918 32 270.699 32 253C32.0001 129.289 132.288 29.0003 256 29.0002Z" fill="white"/>
</svg>
