<svg width="512" height="512" viewBox="0 0 512 512" fill="none" xmlns="http://www.w3.org/2000/svg">
<g clip-path="url(#clip0_55_283)">
<path d="M388.456 173.494C375.96 185.991 355.698 185.991 343.202 173.494L337.545 167.838C321.924 152.217 296.597 152.217 280.976 167.838L167.839 280.975C152.218 296.596 152.218 321.922 167.839 337.543L173.496 343.2C185.993 355.697 185.993 375.958 173.496 388.455L133.897 428.054C121.401 440.55 100.801 440.684 91.0209 425.964C49.7346 363.824 56.4844 279.193 111.27 224.407L224.407 111.27C279.193 56.484 363.824 49.7343 425.964 91.0207C440.685 100.801 440.551 121.4 428.054 133.897L388.456 173.494Z" fill="white"/>
<path d="M279.431 302.059C273.183 295.81 273.183 285.68 279.431 279.431C285.68 273.183 295.81 273.183 302.059 279.431L392.568 369.941C398.817 376.19 398.817 386.32 392.568 392.569C386.32 398.817 376.189 398.817 369.941 392.569L279.431 302.059Z" fill="white"/>
<path d="M302.059 392.569C295.81 398.817 285.68 398.817 279.431 392.569C273.183 386.32 273.183 376.19 279.431 369.941L369.941 279.431C376.189 273.183 386.32 273.183 392.568 279.431C398.817 285.68 398.817 295.81 392.568 302.059L302.059 392.569Z" fill="white"/>
</g>
<defs>
<clipPath id="clip0_55_283">
<rect width="512" height="512" fill="white"/>
</clipPath>
</defs>
</svg>
