<svg width="512" height="512" viewBox="0 0 512 512" fill="none" xmlns="http://www.w3.org/2000/svg">
<path d="M470.621 24.6312C474.841 24.5318 479.093 26.0932 482.314 29.3138C488.367 35.3669 488.556 45.0634 482.881 51.3441C482.698 51.5467 482.509 51.7456 482.314 51.9408L220.125 314.128L195.531 338.723L52.3931 481.862C49.3664 484.888 45.4285 486.449 41.4624 486.543C41.2069 486.549 40.9513 486.549 40.6958 486.543C40.5678 486.54 40.4399 486.536 40.312 486.53C39.9284 486.511 39.5453 486.48 39.1636 486.434C39.0364 486.419 38.9095 486.401 38.7827 486.383C38.4019 486.328 38.0228 486.26 37.646 486.177C37.5204 486.15 37.3951 486.121 37.27 486.09C37.0201 486.029 36.7713 485.962 36.5239 485.889C36.4002 485.852 36.2768 485.814 36.1538 485.775C35.662 485.616 35.1763 485.433 34.6987 485.226C34.4599 485.122 34.2233 485.012 33.9888 484.896C32.4643 484.142 31.0344 483.131 29.7651 481.862C29.2194 481.316 28.7224 480.74 28.272 480.14C28.1672 480 28.064 479.86 27.9644 479.718C27.6915 479.329 27.4388 478.93 27.2046 478.523C27.1066 478.353 27.0116 478.181 26.9204 478.008C26.7599 477.704 26.6097 477.395 26.4702 477.083C26.2448 476.579 26.0461 476.066 25.8755 475.545C25.7688 475.22 25.6736 474.891 25.5884 474.561C25.4191 473.905 25.2913 473.241 25.2065 472.572C25.1802 472.364 25.1583 472.156 25.1401 471.948C25.104 471.533 25.0845 471.117 25.0806 470.702C25.0784 470.477 25.0801 470.252 25.0874 470.028C25.0884 469.997 25.0901 469.966 25.0913 469.935C25.1044 469.593 25.1277 469.251 25.1626 468.91C25.3771 466.815 26.0044 464.754 27.0435 462.86C27.1923 462.588 27.3483 462.319 27.5142 462.055C27.5397 462.014 27.5664 461.974 27.5923 461.934C27.7054 461.757 27.8212 461.582 27.9419 461.409C28.1996 461.039 28.4756 460.679 28.7681 460.328C28.8705 460.204 28.9758 460.083 29.0825 459.962C29.3013 459.715 29.5284 459.471 29.7651 459.235L459.686 29.3138C460.077 28.9232 460.483 28.557 460.902 28.2152C461.111 28.0445 461.324 27.8796 461.54 27.7211C461.755 27.5625 461.974 27.4104 462.196 27.264C462.639 26.9711 463.095 26.7025 463.559 26.4584C463.731 26.368 463.904 26.2813 464.079 26.1976C464.729 25.8857 465.396 25.6197 466.075 25.4008C466.232 25.3499 466.391 25.302 466.549 25.2562C466.73 25.204 466.912 25.1554 467.094 25.1097C467.642 24.9723 468.196 24.8641 468.753 24.7855C469.237 24.7173 469.723 24.6708 470.21 24.6469C470.347 24.6401 470.484 24.6345 470.621 24.6312ZM383 207.999C391.837 208 399 215.163 399 223.999H399.119C391.74 290.745 338.745 343.74 272 351.119V435.999C272 444.836 264.837 451.999 256 451.999C247.164 451.999 240 444.836 240 435.999V351.119C230.274 350.043 220.841 347.998 211.797 345.084L238.279 318.603C244.051 319.521 249.97 319.999 256 319.999C312.424 319.999 359.101 278.276 366.865 223.999H367C367.001 223.479 367.026 222.965 367.075 222.457C367.114 222.151 367.152 221.844 367.189 221.537C368.373 213.87 375.001 207.999 383 207.999ZM129 207.999C136.999 208 143.628 213.87 144.812 221.537C144.849 221.844 144.886 222.151 144.925 222.457C144.974 222.965 145 223.479 145 223.999H145.136C148.727 249.105 160.646 271.523 178.002 288.37L155.372 311C132.198 288.357 116.636 257.958 112.882 223.999H113C113.001 215.163 120.164 207.999 129 207.999ZM336 223.999C336 259.345 307.346 287.999 272 287.999H268.883L336 220.882V223.999ZM272 31.9994C307.346 31.9997 336 60.6536 336 95.9994V130.372L195.949 270.423C183.663 258.762 176 242.276 176 223.999V95.9994C176.001 60.6534 204.654 31.9994 240 31.9994H272Z" fill="white"/>
</svg>
