<svg width="512" height="512" viewBox="0 0 512 512" fill="none" xmlns="http://www.w3.org/2000/svg">
<path d="M79.4885 83.865C70.1667 68.9211 88.9469 48.3077 104.2 57.114L427.109 243.546C437.775 249.704 437.775 265.099 427.109 271.258L109.33 454.728C93.8829 463.647 74.4362 441.962 83.9885 426.898C109.723 386.316 137.108 334.614 145.461 288.014C146.921 279.87 153.771 273.546 162.044 273.546H292.025C300.861 273.546 308.025 266.382 308.025 257.546V257.546C308.025 248.709 300.861 241.546 292.025 241.546H160.648C152.633 241.546 145.91 235.605 144.27 227.76C134.155 179.394 105.347 125.316 79.4885 83.865Z" fill="#D9D9D9"/>
</svg>
