<svg width="512" height="512" viewBox="0 0 512 512" fill="none" xmlns="http://www.w3.org/2000/svg">
<path d="M65.2434 61.8469C59.2991 47.2337 75.8671 32.295 89.5296 40.1828L439.085 241.999C449.752 248.158 449.752 263.554 439.085 269.712L89.5296 471.529C75.8671 479.416 59.299 464.478 65.2434 449.864C82.0805 408.475 104.106 346.704 111.524 291.323C112.626 283.093 119.515 276.742 127.817 276.742H213.867C222.704 276.742 229.867 269.579 229.867 260.742V252.235C229.867 243.398 222.704 236.235 213.867 236.235H127.991C119.66 236.235 112.758 229.843 111.681 221.582C104.423 165.897 82.2015 103.534 65.2434 61.8469Z" fill="#D9D9D9"/>
</svg>
