<svg width="512" height="512" viewBox="0 0 512 512" fill="none" xmlns="http://www.w3.org/2000/svg">
<path d="M256 28.9993C379.711 28.9994 479.999 129.288 480 252.999C480 270.609 477.964 287.744 474.122 304.183C476.329 307.855 477.066 312.398 475.792 316.841L431.691 470.643C429.255 479.137 420.394 484.048 411.9 481.613L350.379 463.972C341.886 461.536 336.974 452.676 339.41 444.182L383.511 290.38C385.947 281.886 394.807 276.974 403.301 279.409L444.209 291.14C446.694 278.813 448 266.058 448 252.999C447.999 146.961 362.038 60.9994 256 60.9993C149.961 60.9995 63.9999 146.961 63.9995 252.999C63.9995 266.077 65.3065 278.851 67.7983 291.195L108.9 279.409C117.394 276.974 126.255 281.886 128.691 290.38L172.792 444.182C175.228 452.676 170.317 461.536 161.823 463.972L100.301 481.613C91.8072 484.048 82.9469 479.137 80.5112 470.643L36.4097 316.841C35.1643 312.498 35.8396 308.058 37.9331 304.431C34.053 287.917 31.9995 270.697 31.9995 252.999C31.9999 129.288 132.288 28.9995 256 28.9993Z" fill="white"/>
</svg>
